<?xml version="1.0" encoding="UTF-8"?>
<!DOCTYPE svg PUBLIC "-//W3C//DTD SVG 1.1//EN" "http://www.w3.org/Graphics/SVG/1.1/DTD/svg11.dtd">
<!-- Creator: CorelDRAW 2020 (64-Bit) -->
<svg xmlns="http://www.w3.org/2000/svg" xml:space="preserve" width="210mm" height="120mm" version="1.1" style="shape-rendering:geometricPrecision; text-rendering:geometricPrecision; image-rendering:optimizeQuality; fill-rule:evenodd; clip-rule:evenodd"
viewBox="0 0 21000 12000"
 xmlns:xlink="http://www.w3.org/1999/xlink"
 xmlns:xodm="http://www.corel.com/coreldraw/odm/2003">
 <defs>
  <style type="text/css">
   <![CDATA[
    .fil0 {fill:#FEFEFE}
    .fil4 {fill:#E84D27}
    .fil1 {fill:#434242;fill-rule:nonzero}
    .fil3 {fill:#E84D27;fill-rule:nonzero}
    .fil2 {fill:#2F3C84;fill-rule:nonzero}
   ]]>
  </style>
 </defs>
 <g id="Слой_x0020_1">
  <metadata id="CorelCorpID_0Corel-Layer"/>
  <polygon class="fil0" points="-0,0 21000,0 21000,12000 -0,12000 "/>
  <g id="_1928249828992">
   <path class="fil1" d="M4687.1 7726.61c0,-16.91 -8.95,-25.35 -26.85,-25.35l-46.73 0 0 -400.11c0,-16.9 -8.95,-25.35 -26.85,-25.35l-385.81 0c-17.9,0 -27.85,8.45 -30.83,25.35 -33.81,189.73 -54.69,307.13 -61.65,353.14 -4.97,30.99 -19.89,46.97 -60.65,46.97l-24.86 0c-14.92,0 -22.87,7.51 -22.87,21.6l0 122.1c0,16.9 8.94,25.35 26.84,25.35l54.69 0c17.9,0 26.85,-8.45 26.85,-25.35l0 -51.67 468.35 0 0 51.67c0,16.9 8.95,25.35 26.85,25.35l55.68 0c17.9,0 26.85,-8.45 26.85,-25.35l0.99 -118.35zm-492.21 -24.42c7.95,-10.32 14.92,-30.05 20.88,-57.29l52.7 -276.12 234.67 0 0 333.41 -308.25 0zm1392.92 24.42c0,-16.91 -8.95,-25.35 -26.86,-25.35l-310.23 0c-34.81,0 -57.67,-1.88 -66.62,-4.7 -8.96,-3.76 -12.93,-13.15 -12.93,-28.17l0 -76.09 312.23 0c95.46,0 131.25,-19.71 131.25,-99.55l0 -117.4c0,-79.84 -35.79,-99.55 -131.25,-99.55l-290.35 0c-95.46,0 -131.27,19.71 -131.27,99.55l0 317.45c0,79.83 35.81,99.56 131.27,99.56l367.9 0c17.91,0 26.86,-8.46 26.86,-25.36l0 -40.39zm-416.64 -225.41l0 -100.5c0,-27.23 6.96,-32.86 46.73,-32.86l240.64 0c39.78,0 46.74,5.63 46.74,32.86l0 67.63c0,27.24 -6.96,32.87 -46.74,32.87l-287.37 0zm1214.92 -134.3c17.9,0 26.85,-8.46 26.85,-25.36l0 -40.39c0,-16.9 -8.95,-25.35 -26.85,-25.35l-395.76 0c-17.9,0 -26.84,8.45 -26.84,25.35l0 40.39c0,16.9 8.94,25.36 26.84,25.36l144.18 0 0 400.1c0,16.9 8.95,25.36 26.85,25.36l54.69 0c17.91,0 26.86,-8.46 26.86,-25.36l0 -400.1 143.18 0zm917.61 359.71c0,-16.91 -8.95,-25.35 -26.86,-25.35l-310.23 0c-34.8,0 -57.67,-1.88 -66.62,-4.7 -8.95,-3.76 -12.93,-13.15 -12.93,-28.17l0 -76.09 312.23 0c95.46,0 131.25,-19.71 131.25,-99.55l0 -117.4c0,-79.84 -35.79,-99.55 -131.25,-99.55l-290.35 0c-95.46,0 -131.27,19.71 -131.27,99.55l0 317.45c0,79.83 35.81,99.56 131.27,99.56l367.9 0c17.91,0 26.86,-8.46 26.86,-25.36l0 -40.39zm-416.64 -225.41l0 -100.5c0,-27.23 6.96,-32.86 46.73,-32.86l240.64 0c39.78,0 46.74,5.63 46.74,32.86l0 67.63c0,27.24 -6.96,32.87 -46.74,32.87l-287.37 0zm1085.65 -331.54c-34.8,0 -60.65,-11.26 -77.55,-34.74 -14.92,-19.73 -19.9,-22.55 -46.74,-22.55l-30.83 0c-18.89,0 -24.86,8.45 -17.89,24.43 24.85,60.11 85.5,104.24 173.01,104.24 90.49,0 148.17,-45.08 172.03,-104.24 6.96,-15.98 0.99,-24.43 -17.9,-24.43l-29.83 0c-24.86,0 -31.82,2.82 -46.74,22.55 -17.89,23.48 -43.74,34.74 -77.56,34.74zm240.64 131.49c0,-16.9 -8.95,-25.35 -26.85,-25.35l-82.53 0c-17.89,0 -31.82,7.51 -40.77,21.6l-222.74 360.65 0 -356.9c0,-16.9 -8.94,-25.35 -26.84,-25.35l-55.69 0c-17.89,0 -26.85,8.45 -26.85,25.35l0 465.85c0,16.9 8.96,25.36 26.85,25.36l85.51 0c17.91,0 31.82,-7.52 40.77,-21.6l220.76 -355.96 0 352.2c0,16.9 8.94,25.36 26.84,25.36l54.69 0c17.9,0 26.85,-8.46 26.85,-25.36l0 -465.85zm946.44 0c0,-16.9 -8.95,-25.35 -26.84,-25.35l-385.82 0c-17.89,0 -27.84,8.45 -30.82,25.35l-60.66 353.14c-4.97,30.99 -17.89,46.97 -60.66,46.97l-12.92 0c-6.96,0 -10.94,3.75 -10.94,10.32l0 55.42c0,16.9 8.95,25.36 26.85,25.36l28.83 0c44.75,0 75.58,-6.58 93.48,-18.78 17.89,-13.16 30.82,-40.4 37.79,-80.78l58.66 -324.96 233.68 0 0 399.16c0,16.9 8.95,25.36 26.84,25.36l55.69 0c17.89,0 26.84,-8.46 26.84,-25.36l0 -465.85zm900.71 0c0,-16.9 -8.95,-25.35 -26.86,-25.35l-82.53 0c-17.89,0 -31.82,7.51 -40.77,21.6l-222.74 360.65 0 -356.9c0,-16.9 -8.94,-25.35 -26.84,-25.35l-55.69 0c-17.89,0 -26.84,8.45 -26.84,25.35l0 465.85c0,16.9 8.95,25.36 26.84,25.36l85.52 0c17.9,0 31.82,-7.52 40.77,-21.6l220.75 -355.96 0 352.2c0,16.9 8.94,25.36 26.85,25.36l54.68 0c17.91,0 26.86,-8.46 26.86,-25.36l0 -465.85zm923.57 0c0,-16.9 -8.95,-25.35 -26.85,-25.35l-55.68 0c-17.91,0 -26.86,8.45 -26.86,25.35l0 188.78 -286.37 0 0 -188.78c0,-16.9 -8.94,-25.35 -26.85,-25.35l-55.69 0c-17.89,0 -26.84,8.45 -26.84,25.35l0 465.85c0,16.9 8.95,25.36 26.84,25.36l55.69 0c17.91,0 26.85,-8.46 26.85,-25.36l0 -185.96 286.37 0 0 185.96c0,16.9 8.95,25.36 26.86,25.36l55.68 0c17.9,0 26.85,-8.46 26.85,-25.36l0 -465.85zm786.35 66.69c17.89,0 26.84,-8.45 26.84,-25.36l0 -41.33c0,-16.9 -8.95,-25.35 -26.84,-25.35l-341.07 0c-17.89,0 -26.85,8.45 -26.85,25.35l0 465.85c0,16.9 8.96,25.36 26.85,25.36l55.69 0c17.9,0 26.84,-8.46 26.84,-25.36l0 -399.16 258.54 0zm1656.6 358.77c0,-16.91 -8.95,-25.35 -26.85,-25.35l-32.81 0 0 -400.11c0,-16.9 -8.95,-25.35 -26.86,-25.35l-55.68 0c-17.9,0 -26.84,8.45 -26.84,25.35l0 400.11 -334.12 0 0 -400.11c0,-16.9 -8.94,-25.35 -26.84,-25.35l-55.69 0c-17.89,0 -26.84,8.45 -26.84,25.35l0 465.85c0,16.9 8.95,25.36 26.84,25.36l476.3 0 0 51.65c0,16.91 8.96,25.36 26.86,25.36l55.68 0c17.9,0 26.85,-8.45 26.85,-25.36l0 -117.4zm905.67 0c0,-16.91 -8.95,-25.35 -26.85,-25.35l-310.24 0c-34.8,0 -57.67,-1.88 -66.62,-4.7 -8.95,-3.76 -12.93,-13.15 -12.93,-28.17l0 -76.09 312.23 0c95.46,0 131.25,-19.71 131.25,-99.55l0 -117.4c0,-79.84 -35.79,-99.55 -131.25,-99.55l-290.35 0c-95.46,0 -131.26,19.71 -131.26,99.55l0 317.45c0,79.83 35.8,99.56 131.26,99.56l367.91 0c17.9,0 26.85,-8.46 26.85,-25.36l0 -40.39zm-416.64 -225.41l0 -100.5c0,-27.23 6.96,-32.86 46.73,-32.86l240.64 0c39.78,0 46.74,5.63 46.74,32.86l0 67.63c0,27.24 -6.96,32.87 -46.74,32.87l-287.37 0zm1349.16 -200.05c0,-16.9 -8.95,-25.35 -26.85,-25.35l-55.68 0c-17.9,0 -26.85,8.45 -26.85,25.35l0 188.78 -286.38 0 0 -188.78c0,-16.9 -8.94,-25.35 -26.84,-25.35l-55.69 0c-17.89,0 -26.84,8.45 -26.84,25.35l0 465.85c0,16.9 8.95,25.36 26.84,25.36l55.69 0c17.9,0 26.84,-8.46 26.84,-25.36l0 -185.96 286.38 0 0 185.96c0,16.9 8.95,25.36 26.85,25.36l55.68 0c17.9,0 26.85,-8.46 26.85,-25.36l0 -465.85zm789.34 65.75c17.89,0 26.84,-8.46 26.84,-25.36l0 -40.39c0,-16.9 -8.95,-25.35 -26.84,-25.35l-395.76 0c-17.91,0 -26.85,8.45 -26.85,25.35l0 40.39c0,16.9 8.94,25.36 26.85,25.36l144.18 0 0 400.1c0,16.9 8.95,25.36 26.85,25.36l54.69 0c17.9,0 26.85,-8.46 26.85,-25.36l0 -400.1 143.19 0zm945.45 8.45c0,-79.84 -35.81,-99.55 -131.27,-99.55l-290.35 0c-95.45,0 -131.25,19.71 -131.25,99.55l0 579.49c0,16.91 8.94,25.36 26.84,25.36l55.69 0c17.9,0 26.85,-8.45 26.85,-25.36l0 -162.48 312.22 0c95.46,0 131.27,-19.73 131.27,-99.56l0 -317.45zm-443.49 325.91l0 -300.56c0,-27.23 6.95,-32.86 46.74,-32.86l240.62 0c39.78,0 46.74,5.63 46.74,32.86l0 267.69c0,27.23 -6.96,32.87 -46.74,32.87l-287.36 0z"/>
   <g>
    <path class="fil2" d="M6512.05 6219.69l431.92 0 220.59 -549.97 1047.14 0 223.72 549.97 431.91 0 -820.34 -1954.45c-39.34,-91.12 -85.43,-154.83 -138.24,-191.09 -52.85,-36.22 -125.84,-54.35 -219.06,-54.35 -97.36,0 -171.42,18.13 -222.17,54.35 -50.76,36.26 -95.79,99.97 -135.17,191.09l-820.3 1954.45zm1115.47 -1727.61c6.24,-16.55 14.54,-35.74 24.89,-57.47 10.35,-21.76 22.79,-32.63 37.28,-32.63 14.5,0 26.94,10.87 37.29,32.63 10.35,21.73 18.64,40.92 24.84,57.47l354.22 885.55 -835.82 0 357.3 -885.55z"/>
    <polygon class="fil2" points="9024.11,6219.69 9387.65,6219.69 9387.65,4044.65 9024.11,4044.65 "/>
    <path class="fil2" d="M9956.16 6219.69l0 -1367.15 450.51 0 0 -279.68 -450.51 0c-2.1,-66.28 7.23,-117.55 27.96,-153.81 20.7,-36.22 42.46,-62.65 65.25,-79.23 33.14,-22.76 77.66,-36.74 133.59,-41.95 55.93,-5.18 130.5,-7.74 223.71,-7.74l0 -267.25c-47.63,-2.05 -100.44,-2.05 -158.46,0 -57.99,2.09 -116.52,7.78 -175.53,17.1 -59.05,9.33 -115.5,23.82 -169.37,43.49 -53.84,19.71 -100.45,45.07 -139.82,76.15 -35.2,29 -63.68,61.62 -85.44,97.88 -21.76,36.26 -38.83,73.55 -51.27,111.86 -12.44,38.31 -21.25,75.6 -26.42,111.86 -5.18,36.26 -7.75,67.82 -7.75,94.76l0 0 0 276.56 0 0 0 1367.15 363.55 0z"/>
    <path class="fil2" d="M10684.63 4572.86l0 279.68 810.98 0c29.03,0 59.56,4.11 91.67,12.4 32.12,8.3 60.59,27.97 85.44,59.05 20.74,24.85 33.69,50.76 38.86,77.7 5.18,26.9 7.75,52.81 7.75,77.65l0 114.98 -714.64 0c-43.49,0 -91.68,4.66 -144.49,13.98 -52.81,9.32 -105.14,36.77 -156.92,82.36 -62.14,53.83 -100.96,115.96 -116.52,186.43 -15.53,70.42 -23.31,141.88 -23.31,214.39 0,31.05 1.07,66.28 3.12,105.62 2.06,39.38 7.78,79.75 17.1,121.18 9.33,41.44 23.82,81.33 43.49,119.64 19.67,38.32 46.1,71.97 79.24,101 47.63,41.43 97.87,65.25 150.68,71.45 52.85,6.21 102.03,9.32 147.61,9.32l786.13 0c39.34,0 79.75,-3.63 121.18,-10.86 41.43,-7.26 76.63,-25.39 105.62,-54.39 29.03,-28.99 47.16,-64.22 54.39,-105.65 7.26,-41.44 10.9,-76.63 10.9,-105.62l0 -854.51c0,-93.21 -11.42,-172.45 -34.21,-237.7 -22.79,-65.25 -51.78,-115.49 -87.01,-150.68 -37.29,-39.38 -85.95,-70.43 -146.03,-93.22 -60.07,-22.79 -125.32,-34.2 -195.75,-34.2l-935.28 0zm1034.7 901.11l0 379.06c0,12.44 -1.03,24.37 -3.08,35.75 -2.1,11.37 -9.33,22.27 -21.77,32.62 -12.44,10.35 -26.42,16.04 -41.94,17.11 -15.53,1.02 -28.48,1.54 -38.83,1.54l-506.49 0c-22.79,0 -45.06,-5.18 -66.79,-15.53 -21.76,-10.38 -38.86,-21.76 -51.27,-34.2 -22.79,-22.79 -36.77,-52.81 -41.94,-90.1 -5.18,-37.28 -7.78,-68.37 -7.78,-93.21 0,-60.08 5.17,-102.54 15.52,-127.39 10.38,-24.88 18.64,-41.43 24.88,-49.72 20.7,-26.94 45.03,-42.98 73,-48.15 27.96,-5.21 48.18,-7.78 60.59,-7.78l605.9 0z"/>
    <g>
     <path class="fil3" d="M14147.6 6219.69l0 -326.25 -736.44 0c-128.41,0 -241.3,-13.47 -338.66,-40.41 -97.37,-26.9 -174.03,-82.83 -229.96,-167.79 -10.35,-16.55 -21.72,-38.31 -34.17,-65.25 -12.44,-26.93 -23.81,-61.1 -34.16,-102.53 -10.35,-41.44 -18.65,-91.64 -24.88,-150.69 -6.21,-59.05 -9.33,-128.96 -9.33,-209.74 0,-161.58 11.93,-287.42 35.75,-377.52 23.82,-90.1 52.29,-158.98 85.43,-206.65 31.09,-45.55 66.83,-81.81 107.2,-108.74 40.41,-26.94 84.96,-47.64 133.62,-62.14 48.7,-14.49 101,-23.3 156.93,-26.42 55.93,-3.12 113.91,-4.66 173.99,-4.66l680.47 0 0 -326.25 -873.1 0c-39.38,0 -88.05,2.09 -146.07,6.2 -57.98,4.14 -120.11,15.56 -186.43,34.2 -66.28,18.64 -132.56,46.1 -198.83,82.32 -66.32,36.26 -126.36,86.5 -180.23,150.72 -45.58,53.84 -82.36,113.4 -110.32,178.65 -27.97,65.25 -49.18,134.65 -63.67,208.2 -14.5,73.54 -24.37,149.14 -29.55,226.83 -5.17,77.66 -7.74,154.84 -7.74,231.47 0,60.07 2.06,124.81 6.2,194.21 4.15,69.4 13.47,139.31 27.97,209.73 14.49,70.43 36.26,139.83 65.25,208.2 28.99,68.33 69.4,131.53 121.18,189.51 49.73,55.93 104.08,101 163.13,135.17 59.04,34.2 119.12,60.07 180.23,77.69 61.1,17.61 121.69,28.99 181.77,34.16 60.07,5.18 116,7.78 167.78,7.78l916.64 0z"/>
     <path class="fil3" d="M14480.06 4572.86l0 279.68 810.97 0c29.03,0 59.56,4.11 91.68,12.4 32.11,8.3 60.59,27.97 85.43,59.05 20.74,24.85 33.69,50.76 38.87,77.7 5.17,26.9 7.74,52.81 7.74,77.65l0 114.98 -714.64 0c-43.49,0 -91.68,4.66 -144.49,13.98 -52.81,9.32 -105.14,36.77 -156.92,82.36 -62.13,53.83 -100.96,115.96 -116.52,186.43 -15.52,70.42 -23.31,141.88 -23.31,214.39 0,31.05 1.07,66.28 3.12,105.62 2.06,39.38 7.78,79.75 17.11,121.18 9.32,41.44 23.81,81.33 43.48,119.64 19.68,38.32 46.1,71.97 79.24,101 47.63,41.43 97.87,65.25 150.68,71.45 52.85,6.21 102.03,9.32 147.61,9.32l786.13 0c39.34,0 79.75,-3.63 121.18,-10.86 41.43,-7.26 76.63,-25.39 105.62,-54.39 29.03,-28.99 47.16,-64.22 54.39,-105.65 7.26,-41.44 10.9,-76.63 10.9,-105.62l0 -854.51c0,-93.21 -11.42,-172.45 -34.21,-237.7 -22.79,-65.25 -51.78,-115.49 -87.01,-150.68 -37.29,-39.38 -85.95,-70.43 -146.02,-93.22 -60.08,-22.79 -125.33,-34.2 -195.76,-34.2l-935.27 0zm1034.69 901.11l0 379.06c0,12.44 -1.03,24.37 -3.08,35.75 -2.09,11.37 -9.32,22.27 -21.77,32.62 -12.44,10.35 -26.42,16.04 -41.94,17.11 -15.53,1.02 -28.48,1.54 -38.83,1.54l-506.48 0c-22.79,0 -45.07,-5.18 -66.8,-15.53 -21.76,-10.38 -38.86,-21.76 -51.27,-34.2 -22.79,-22.79 -36.77,-52.81 -41.94,-90.1 -5.18,-37.28 -7.78,-68.37 -7.78,-93.21 0,-60.08 5.17,-102.54 15.52,-127.39 10.39,-24.88 18.64,-41.43 24.88,-49.72 20.7,-26.94 45.03,-42.98 73,-48.15 27.96,-5.21 48.18,-7.78 60.59,-7.78l605.9 0z"/>
     <path class="fil3" d="M16089.6 6219.69l363.55 0 0 -929.03c0,-62.17 5.17,-121.19 15.52,-177.12 10.35,-55.92 33.14,-104.62 68.37,-146.06 43.49,-51.78 94.24,-83.89 152.23,-96.3 58.02,-12.44 110.83,-18.64 158.47,-18.64l152.26 0 0 -279.68 -245.48 0c-31.05,0 -67.31,1.06 -108.74,3.12 -41.43,2.09 -84.41,7.78 -128.96,17.1 -44.52,9.32 -89.07,23.82 -133.59,43.49 -44.55,19.67 -85.47,46.09 -122.75,79.23 -70.43,60.08 -116.52,132.08 -138.25,215.97 -21.76,83.9 -32.63,171.39 -32.63,262.55l0 1025.37z"/>
    </g>
    <g>
     <path class="fil4" d="M5357.35 4370.9l-1031.68 0 0 -326.25 1165.3 0c-45.02,112.29 -89.5,220.52 -133.62,326.25z"/>
     <path class="fil3" d="M6355.28 4044.65l-431.92 0 -683.55 1631.71c-6.83,16.3 -14.57,35.79 -24.89,57.47 -10.31,21.73 -22.79,32.63 -37.28,32.63 -14.5,0 -26.94,-10.9 -37.29,-32.63 -10.31,-21.72 -18.02,-41.21 -24.84,-57.47l-683.6 -1631.71 -431.91 0 820.34 1954.45c39.34,91.12 85.43,154.83 138.24,191.09 52.85,36.22 125.84,54.35 219.06,54.35 97.36,0 171.42,-18.13 222.17,-54.35 50.76,-36.26 95.79,-99.97 135.17,-191.09l820.3 -1954.45z"/>
    </g>
   </g>
  </g>
 </g>
</svg>
