<?xml version="1.0" encoding="utf-8"?>
<!-- Generator: Adobe Illustrator 25.0.0, SVG Export Plug-In . SVG Version: 6.00 Build 0)  -->
<svg version="1.1" id="Layer_1" xmlns="http://www.w3.org/2000/svg" xmlns:xlink="http://www.w3.org/1999/xlink" x="0px" y="0px"
	 viewBox="0 0 2500 1459.7" style="enable-background:new 0 0 2500 1459.7;" xml:space="preserve">
<style type="text/css">
	.st0{fill-rule:evenodd;clip-rule:evenodd;fill:#C82B2E;}
	.st1{fill:#FFFFFF;}
	.st2{font-family:'Tahoma-Bold';}
	.st3{font-size:167px;}
</style>
<g>
	<path class="st0" d="M1606.6,317.6c204.8,0,371.4,125.1,435.8,297.7h-871.7C1235.2,442.7,1401.8,317.6,1606.6,317.6z M1606.6-4.9
		h1.7c-75.6,151.9,53.9,160.6-25.5,286.7c-80.9,3.6-155.7,25.3-221,60.9c12.4-152.7-106.5-97.9-113.1-265.9
		C1355.2,24.7,1476.4-4.9,1606.6-4.9L1606.6-4.9z M1649.1-3.8c127,6.3,244.5,40.9,347.1,97.2c-144.7,93.3-34.4,167.1-171.2,236
		c-60.5-28.4-128.2-45.4-200.7-47.8C1703.1,156.1,1574.6,147,1649.1-3.8L1649.1-3.8z M2032,114.3
		c104.9,64.9,192.9,153.7,256.9,259.1c-179.5,15.1-115.2,130.1-258.9,135.3c-42.3-65.6-99.6-120.3-167.2-159.5
		C1996.1,280.7,1887.8,207.1,2032,114.3L2032,114.3z M2308.9,408.4c35,65,60.6,134.7,75.9,206.9h-303.1
		c-8.5-24.7-18.9-48.7-31.2-71.7C2196.1,539.3,2131.6,424.4,2308.9,408.4z M1325.1,364.9c-64,42.4-117.2,99.3-155.4,165.9
		C1091.3,378.6,1025.2,494,925.1,372c70.3-115.2,169.2-210.2,287.1-275.9C1218.6,265.4,1339,208.9,1325.1,364.9L1325.1,364.9z
		 M1150.7,567.3c-7.3,15.6-13.8,31.6-19.4,47.9h-303c15.4-72.7,41.2-142.8,76.6-208.2C1005.8,531.7,1072.1,414.8,1150.7,567.3z"/>
	<path class="st1" d="M948.5,1240.9h38.9c74.1,0,134.8-60.7,134.8-134.8V716.3h-98.7v379.9c0,30.6-25,55.6-55.6,55.6
		c-30.7-0.1-55.5-24.9-55.6-55.6V716.3h-98.6v389.8C813.7,1180.2,874.4,1240.9,948.5,1240.9z"/>
	<polygon class="st1" points="263.2,461.4 156.8,461.4 156.8,1230.1 434.2,1230.1 434.2,1137.2 263.2,1137.2 	"/>
	<polygon class="st1" points="598.4,461.4 492,461.4 492,1230.1 769.4,1230.1 769.4,1137.2 598.4,1137.2 	"/>
	<path class="st1" d="M1304.6,900.7c0-21.7,0.2-52.2,11.1-71.8c34.4-61.9,100.2-29.8,100.2,42.8v358.4h98.6V870.6
		c0-40.8,16.3-72.6,55.7-72.6c35.1,0,51.6,22.3,51.6,57c0,125.2-0.9,249.9-0.9,375.1h98.6l1-410.8c0-61.3-42-110.6-103.8-110.6
		c-60.3,0-96.9,39-115,66.8c-15.8-36.6-45.4-66.8-85.7-66.8c-63.8,0-96.4,43.7-111.3,71.6v-64h-98.6l-0.1,513.8h98.6V900.7z"/>
	<path class="st1" d="M2401.6,812.2v-95.9h-0.3c-63.9,0-96.4,36.1-111.3,64v-64h-98.6v513.8h98.6V923.5c0-21.7,0.2-52.2,11.1-71.8
		C2323,812.4,2370.1,798.5,2401.6,812.2z"/>
	<path class="st1" d="M2405.3,1216.7c2.5-2.9,3.7-6.5,3.7-10.9c0-5.6-2.1-9.8-6.4-12.6c-4.3-2.8-10.7-4.2-19.2-4.2h-23.3v61.4h11.6
		v-26.2h11.4l12.5,26.2h13l-13.7-28C2399.4,1221.5,2402.8,1219.6,2405.3,1216.7z M2393.5,1214.5c-2.4,1.5-6.3,2.3-11.9,2.3h-9.8
		v-20.3h9.5c5.5,0,9.5,0.8,12,2.5s3.8,4.4,3.8,8.1C2397.1,1210.5,2395.9,1212.9,2393.5,1214.5z"/>
	<path class="st1" d="M2420.5,1182.7c-10.1-10.4-24.1-16.2-38.6-16.1c-7.1-0.1-14.1,1.3-20.6,3.9c-6.4,2.6-12.2,6.5-17,11.5
		c-5.3,5.3-9.4,11.3-12.2,18s-4.2,13.6-4.2,20.8c-0.1,7,1.3,13.9,4,20.4c2.8,6.5,6.8,12.5,11.8,17.5c5,5.2,11,9.3,17.6,12.1
		c6.5,2.8,13.5,4.2,20.6,4.2c7,0,14-1.5,20.5-4.2c6.7-2.7,12.7-6.7,18-11.9c5.1-4.9,9.1-10.7,11.8-17.2s4-13.5,4-20.9
		C2436.2,1206.5,2430.6,1192.8,2420.5,1182.7z M2415.5,1254c-4.5,4.4-9.8,7.9-15.6,10.3c-5.8,2.3-11.8,3.5-18.2,3.5
		c-6.1,0-12-1.2-17.7-3.6c-5.7-2.4-10.8-5.9-15.2-10.4c-4.5-4.6-7.9-9.6-10.3-15.3c-4.7-11.4-4.7-24.2,0.2-35.6
		c2.5-5.9,6.1-11.2,10.6-15.7c4.2-4.3,9.2-7.7,14.8-9.9c5.6-2.3,11.6-3.5,18-3.5c6.3,0,12.5,1.2,18.3,3.6c5.8,2.4,11,6,15.4,10.4
		c4.4,4.3,7.8,9.4,10,15.1c2.2,5.7,3.4,11.8,3.4,18.4C2429.2,1233.6,2424.3,1245.4,2415.5,1254z"/>
	<path class="st1" d="M2107.7,1230.1V716.3h-98.6v56.5c-24.1-40.7-57.2-64-94.4-64c-60.1,0-122.2,65-122.1,193.7v120.2
		c0,136.5,38.9,218.2,122.7,218.2c47.1,0,75.3-28.6,93.8-73.5v62.7H2107.7z M2009,1007.3c0,40.4-2,144.6-56.9,144.6
		c-40.3,0-59-53.6-59-143.4v-79c0-84.6,29.8-127.3,58.7-127.3c45.6,0,57.2,72.6,57.2,107.6V1007.3z"/>
	<text transform="matrix(1 0 0 1 151.3322 1432.1371)" class="st1 st2 st3">PAINT PROTECTION FILM</text>
</g>
</svg>
