<svg xmlns="http://www.w3.org/2000/svg" width="85" height="42" viewBox="0 0 85 42"><path fill="#de0024" d="M57 30.88h-.57l-.55-1.7-.54 1.7h-.58l-.79-2.65h.69l.44 1.67.5-1.67h.6l.52 1.67.45-1.67h.58zm1 .12v-3h1v3zm3.58-.12l-1.26-1.59v1.59h-.56v-2.65h.48l1.26 1.6v-1.6h.56v2.65zm1.31-2.65H63.73c1.06 0 1.49.6 1.49 1.3 0 .74-.51 1.35-1.52 1.35h-.81zm.6.57v1.51h.23c.52 0 .85-.27.85-.78 0-.48-.36-.74-.85-.74l-.22.01c-.08.01 0 0 0 0zm3.58-.61c.8 0 1.41.52 1.41 1.37 0 .8-.6 1.36-1.4 1.36-.81 0-1.41-.52-1.41-1.36 0-.77.56-1.37 1.4-1.37.85 0 0 0 0 0zm0 2.17c.5 0 .77-.36.77-.8 0-.49-.34-.8-.77-.8-.44 0-.76.31-.76.8 0 .45.34.8.76.8.43 0 0 0 0 0zm4.68.52h-.58l-.55-1.7-.54 1.7h-.58l-.79-2.65h.69l.44 1.67.5-1.67h.6l.52 1.67.45-1.67h.58zm2.14-2.65h1.53v.57h-.92v.56h.8v.57h-.8v.95h-.6zM76 31v-3h1v3zm1.58-2.77h.6v2.08h1.08v.57h-1.68zm2.2 0h.62l.81 1.12.77-1.12h.58v2.65h-.61v-1.69l-.74 1.03h-.08l-.74-1.02v1.68h-.6zm3.47.72c0-.4.33-.76.86-.76.34 0 .61.11.78.29l-.33.45c-.12-.1-.2-.17-.4-.17-.17 0-.26.07-.26.2 0 .43 1.1.32 1.1 1.19 0 .46-.4.77-.9.77-.36 0-.78-.15-.9-.43l.34-.41c.15.19.38.28.57.28.16 0 .25-.08.25-.2 0-.4-1.1-.35-1.1-1.2 0-.86 0 0 0 0zM.17 19.75c0-1.22.97-2.28 2.56-2.28 1.02 0 1.84.34 2.34.87l-.98 1.36c-.35-.33-.6-.53-1.2-.53-.5 0-.8.22-.8.59 0 1.31 3.32 1 3.32 3.58 0 1.38-1.2 2.33-2.72 2.33-1.07 0-2.3-.45-2.69-1.3l1.03-1.24c.45.58 1.15.84 1.7.84.48 0 .75-.24.75-.61 0-1.19-3.31-1.04-3.31-3.6zM37 19v-1h1.61a9.42 9.42 0 0 0-.18-.42h2l.15.42H43v1h-2.14a11.21 11.21 0 0 1-.42 6.52h-2a9.35 9.35 0 0 0 .52-6.52zm25.01-1.53c2.42 0 4.22 1.57 4.22 4.1 0 2.4-1.8 4.1-4.22 4.1-2.41 0-4.21-1.57-4.21-4.1 0-2.3 1.69-4.1 4.21-4.1 2.53 0 0 0 0 0zm0 6.5c1.51 0 2.3-1.06 2.3-2.4 0-1.45-1.01-2.4-2.3-2.4-1.31 0-2.29.95-2.29 2.4 0 1.36 1.02 2.4 2.3 2.4 1.26 0 0 0 0 0zm8.42-6.37h1.81v6.24h3.24v1.7h-5.05zm8.9 0h1.82v6.24h3.23v1.7h-5.05zM29.88 40.16a18.7 18.7 0 0 0 17.77-12.94h1.93A20.55 20.55 0 0 1 29.88 42a20.55 20.55 0 0 1-19.7-14.78h1.93a18.7 18.7 0 0 0 17.77 12.94s-8.3 0 0 0zm0-9.17a9.43 9.43 0 0 0 7.54-3.77h2.21a11.29 11.29 0 0 1-19.5 0h2.2A9.43 9.43 0 0 0 29.89 31s-3.08 0 0 0zm3.68-6.24c-.48.54-1.5.92-2.59.92-2.46 0-4.16-1.63-4.16-4.1 0-2.28 1.42-4.1 4.15-4.1 1.06 0 1.95.36 2.43.83l-.8 1.35a2.84 2.84 0 0 0-1.63-.48c-1.22 0-2.22.84-2.22 2.4 0 1.4.98 2.4 2.4 2.4.57 0 1.2-.18 1.73-.58zm-3.68-21.9a18.7 18.7 0 0 0-17.8 13.03h-1.93A20.55 20.55 0 0 1 29.88 1c9.37 0 17.28 6.3 19.74 14.88h-1.93A18.7 18.7 0 0 0 29.88 2.84s8.34 0 0 0zM48.55 21.5c0-1.34-.14-2.65-.41-3.92h2.91c2.17 0 2.94 1.08 2.94 2.54a2.4 2.4 0 0 1-1.34 2.29l2.31 3.12h-2.2l-1.93-2.77h-.47c-.06.94-.18 1.86-.36 2.76H48.1c.3-1.3.44-2.64.44-4.02 0 0 0 1.34 0 0zm-36.9 4.02H9.76a20.46 20.46 0 0 1-.02-7.94H11.94c2.42 0 3.21 1.26 3.21 2.63 0 1.42-1.1 2.66-2.93 2.66-.16 0-.67 0-.97-.02.07.9.2 1.8.4 2.67zm18.23-13.38a9.43 9.43 0 0 0-7.52 3.74h-2.21a11.29 11.29 0 0 1 19.46 0H37.4a9.43 9.43 0 0 0-7.52-3.74s3.07 0 0 0zm-8.55 5.44a9.4 9.4 0 0 0-.18.42H23v1h-2.2c-.18.64-.3 1.31-.34 2H23v1h-2.55c.04.69.14 1.36.31 2H23v2h-3v-.48h-.68a11.2 11.2 0 0 1 .01-7.94h2s.57-1.21 0 0zm-9.17 3.6c.47 0 1.06-.21 1.06-.98 0-.7-.45-.92-1.1-.92l-.78.02v-.04c-.07.61-.12 1.23-.13 1.86.26.03.7.05.95.05zm-.54-3.6s.27-1.26 0 0zm39.2 3.48c.7 0 1.24-.25 1.24-.92 0-.44-.23-.86-1.1-.86l-.68.02c.06.58.1 1.17.11 1.76z"/></svg>