<?xml version="1.0" encoding="utf-8"?>
<!-- Generator: Adobe Illustrator 25.0.0, SVG Export Plug-In . SVG Version: 6.00 Build 0)  -->
<svg version="1.1" id="Capa_1" xmlns="http://www.w3.org/2000/svg" xmlns:xlink="http://www.w3.org/1999/xlink" x="0px" y="0px"
	 viewBox="0 0 490.7 490.7" style="enable-background:new 0 0 490.7 490.7;" xml:space="preserve">
<style type="text/css">
	.st0{fill:#FFFFFF;}
	.st1{opacity:0.75;fill:#FFFFFF;}
	.st2{opacity:0.5;fill:#FFFFFF;}
</style>
<path class="st0" d="M245.2,204.5c-2.8,0-5.5-0.9-7.6-2.5L3,14.5c-4.1-3.4-4-8.8,0.3-12.1c4.1-3.2,10.7-3.2,14.8,0l227.1,181.5
	L472.3,2.4c4.1-3.4,10.8-3.5,15.1-0.2s4.4,8.7,0.3,12.1c-0.1,0.1-0.2,0.1-0.3,0.2L252.7,202C250.7,203.6,248,204.5,245.2,204.5z"/>
<path class="st1" d="M245.2,347.7c-2.8,0-5.5-0.9-7.6-2.5L3,157.7c-4.1-3.4-4-8.8,0.3-12.1c4.1-3.2,10.7-3.2,14.8,0l227.1,181.5
	l227.1-181.5c4.1-3.4,10.8-3.5,15.1-0.2c4.2,3.3,4.4,8.7,0.3,12.1c-0.1,0.1-0.2,0.1-0.3,0.2L252.8,345.2
	C250.8,346.8,248.1,347.7,245.2,347.7z"/>
<path class="st2" d="M245.2,490.7c-2.8,0-5.5-0.9-7.6-2.5L3,300.6c-4.1-3.4-4-8.8,0.3-12.1c4.1-3.2,10.7-3.2,14.8,0l227.1,181.5
	l227.1-181.5c4.1-3.4,10.8-3.5,15.1-0.2s4.4,8.7,0.3,12.1c-0.1,0.1-0.2,0.1-0.3,0.2L252.7,488.2C250.7,489.8,248,490.7,245.2,490.7z
	"/>
</svg>
