<?xml version="1.0" encoding="utf-8"?>
<!-- Generator: Adobe Illustrator 24.3.0, SVG Export Plug-In . SVG Version: 6.00 Build 0)  -->
<svg version="1.1" id="Слой_1" xmlns="http://www.w3.org/2000/svg" xmlns:xlink="http://www.w3.org/1999/xlink" x="0px" y="0px"
	 viewBox="0 0 360 160" style="enable-background:new 0 0 360 160;" xml:space="preserve">
<style type="text/css">
	.st0{fill:#E94D26;}
</style>
<g>
	<g>
		<path class="st0" d="M264,113H117.3c-1.7,0-3-1.3-3-3s1.3-3,3-3H264c1.7,0,3,1.3,3,3S265.7,113,264,113z"/>
	</g>
	<g>
		<path class="st0" d="M337.7,113h-13.8c-1.7,0-3-1.3-3-3s1.3-3,3-3h13.8c1.1,0,2-0.9,2-2V83.5c0-1.5-0.6-3-1.6-4.1
			C325.4,66,307.5,58.2,289,58.2h-33.1c-2.6,0-5.1-0.5-7.4-1.6l-50.4-23.2c-0.3-0.1-0.5-0.2-0.8-0.2h-85.4c-0.3,0-0.6,0.1-0.9,0.2
			l-50.6,24c-1.1,0.5-2.3,0.8-3.4,0.8H22.3c-1.1,0-2,0.9-2,2V105c0,1.1,0.9,2,2,2H58c1.7,0,3,1.3,3,3s-1.3,3-3,3H22.3
			c-4.4,0-8-3.6-8-8V60.3c0-4.4,3.6-8,8-8h34.5c0.3,0,0.6-0.1,0.9-0.2l50.6-24c1.1-0.5,2.3-0.8,3.4-0.8h85.4c1.1,0,2.3,0.3,3.3,0.7
			L251,51.3c1.5,0.7,3.2,1.1,4.9,1.1H289c20.1,0,39.6,8.4,53.5,23c2.1,2.2,3.3,5.1,3.3,8.2V105C345.7,109.4,342.1,113,337.7,113z"/>
	</g>
	<g>
		<path class="st0" d="M293.2,131.5c-11.8,0-21.5-9.6-21.5-21.5s9.6-21.5,21.5-21.5s21.5,9.6,21.5,21.5S305,131.5,293.2,131.5z
			 M293.2,94.5c-8.5,0-15.5,6.9-15.5,15.5s6.9,15.5,15.5,15.5c8.5,0,15.5-6.9,15.5-15.5S301.7,94.5,293.2,94.5z"/>
	</g>
	<g>
		<path class="st0" d="M87.1,131.5c-11.8,0-21.5-9.6-21.5-21.5s9.6-21.5,21.5-21.5s21.5,9.6,21.5,21.5S99,131.5,87.1,131.5z
			 M87.1,94.5c-8.5,0-15.5,6.9-15.5,15.5s6.9,15.5,15.5,15.5s15.5-6.9,15.5-15.5S95.7,94.5,87.1,94.5z"/>
	</g>
	<g>
		<g>
			<path class="st0" d="M94.2,60.3c3.2,0,3.2-5,0-5S91,60.3,94.2,60.3L94.2,60.3z"/>
		</g>
		<g>
			<path class="st0" d="M102.1,60.3c3.2,0,3.2-5,0-5S98.9,60.3,102.1,60.3L102.1,60.3z"/>
		</g>
		<g>
			<path class="st0" d="M110.6,60.3c3.2,0,3.2-5,0-5S107.4,60.3,110.6,60.3L110.6,60.3z"/>
		</g>
		<g>
			<path class="st0" d="M119.4,60.3c3.2,0,3.2-5,0-5C116.2,55.3,116.2,60.3,119.4,60.3L119.4,60.3z"/>
		</g>
		<g>
			<path class="st0" d="M128.2,60.3c3.2,0,3.2-5,0-5S125,60.3,128.2,60.3L128.2,60.3z"/>
		</g>
		<g>
			<path class="st0" d="M136.8,60.3c3.2,0,3.2-5,0-5S133.5,60.3,136.8,60.3L136.8,60.3z"/>
		</g>
		<g>
			<path class="st0" d="M144.9,60.3c3.2,0,3.2-5,0-5C141.6,55.3,141.6,60.3,144.9,60.3L144.9,60.3z"/>
		</g>
		<g>
			<path class="st0" d="M153.9,60.3c3.2,0,3.2-5,0-5S150.7,60.3,153.9,60.3L153.9,60.3z"/>
		</g>
		<g>
			<path class="st0" d="M162.3,60.3c3.2,0,3.2-5,0-5C159,55.3,159,60.3,162.3,60.3L162.3,60.3z"/>
		</g>
		<g>
			<path class="st0" d="M169.8,60.3c3.2,0,3.2-5,0-5S166.6,60.3,169.8,60.3L169.8,60.3z"/>
		</g>
		<g>
			<path class="st0" d="M178.5,60.3c3.2,0,3.2-5,0-5S175.3,60.3,178.5,60.3L178.5,60.3z"/>
		</g>
	</g>
	<g>
		<g>
			<path class="st0" d="M186.4,60.3c3.2,0,3.2-5,0-5S183.2,60.3,186.4,60.3L186.4,60.3z"/>
		</g>
		<g>
			<path class="st0" d="M194.3,60.3c3.2,0,3.2-5,0-5S191.1,60.3,194.3,60.3L194.3,60.3z"/>
		</g>
		<g>
			<path class="st0" d="M202.8,60.3c3.2,0,3.2-5,0-5S199.6,60.3,202.8,60.3L202.8,60.3z"/>
		</g>
		<g>
			<path class="st0" d="M211.7,60.3c3.2,0,3.2-5,0-5C208.4,55.3,208.4,60.3,211.7,60.3L211.7,60.3z"/>
		</g>
		<g>
			<path class="st0" d="M220.4,60.3c3.2,0,3.2-5,0-5S217.2,60.3,220.4,60.3L220.4,60.3z"/>
		</g>
		<g>
			<path class="st0" d="M229,60.3c3.2,0,3.2-5,0-5S225.8,60.3,229,60.3L229,60.3z"/>
		</g>
		<g>
			<path class="st0" d="M237.1,60.3c3.2,0,3.2-5,0-5C233.9,55.3,233.9,60.3,237.1,60.3L237.1,60.3z"/>
		</g>
	</g>
	<g>
		<g>
			<path class="st0" d="M68.7,60.3c3.2,0,3.2-5,0-5C65.4,55.3,65.4,60.3,68.7,60.3L68.7,60.3z"/>
		</g>
		<g>
			<path class="st0" d="M77.3,60.3c3.2,0,3.2-5,0-5C74,55.3,74,60.3,77.3,60.3L77.3,60.3z"/>
		</g>
		<g>
			<path class="st0" d="M85.3,60.3c3.2,0,3.2-5,0-5C82.1,55.3,82.1,60.3,85.3,60.3L85.3,60.3z"/>
		</g>
	</g>
	<g>
		<g>
			<path class="st0" d="M169.8,34.9c3.2,0,3.2-5,0-5C166.6,29.9,166.6,34.9,169.8,34.9L169.8,34.9z"/>
		</g>
		<g>
			<path class="st0" d="M169.8,43.5c3.2,0,3.2-5,0-5S166.6,43.5,169.8,43.5L169.8,43.5z"/>
		</g>
		<g>
			<path class="st0" d="M169.8,51.6c3.2,0,3.2-5,0-5S166.6,51.6,169.8,51.6L169.8,51.6z"/>
		</g>
	</g>
</g>
</svg>
